HIERARCHY
ROOT Hips
{
	OFFSET 0.000000 0.000000 0.000000 
	CHANNELS 6 Xposition Yposition Zposition Yrotation Zrotation Xrotation 
	JOINT Lumbar
	{
		OFFSET 0.000000 0.000000 0.000000 
		CHANNELS 3 Zrotation Xrotation Yrotation
		JOINT Neck
		{
			OFFSET 0.000000 0.445665 0.000000 
			CHANNELS 3 Zrotation Xrotation Yrotation
			End Site
			{
				OFFSET 0.000000 0.227535 0.000000 
			}
		}
		JOINT RightShoulder
		{
			OFFSET 0.019635 0.377685 0.194865 
			CHANNELS 3 Zrotation Xrotation Yrotation
			JOINT RightElbow
			{
				OFFSET 0.000000 -0.243375 0.000000 
				CHANNELS 2 Zrotation Yrotation
				JOINT RightWrist
				{
					OFFSET 0.000000 -0.264825 0.000000 
					CHANNELS 2 Zrotation Xrotation
					End Site
					{
						OFFSET 0.006600 -0.176220 0.000990 
					}
				}
			}
		}
		JOINT LeftShoulder
		{
			OFFSET 0.019635 0.377685 -0.194865 
			CHANNELS 3 Zrotation Xrotation Yrotation
			JOINT LeftElbow
			{
				OFFSET 0.000000 -0.243375 0.000000 
				CHANNELS 2 Zrotation Yrotation
				JOINT LeftWrist
				{
					OFFSET 0.000000 -0.264825 0.000000 
					CHANNELS 2 Zrotation Xrotation
					End Site
					{
						OFFSET 0.006600 -0.176220 -0.000990 
					}
				}
			}
		}
	}
	JOINT RightHip
	{
		OFFSET 0.052140 -0.069960 0.075570 
		CHANNELS 3 Zrotation Xrotation Yrotation
		JOINT RightKnee
		{
			OFFSET 0.000000 -0.402270 0.000000 
			CHANNELS 1 Zrotation
			JOINT RightAnkle
			{
				OFFSET 0.000000 -0.404085 0.000000 
				CHANNELS 3 Zrotation Xrotation Yrotation
				End Site
				{
					OFFSET 0.204105 -0.089430 0.008415 
				}
			}
		}
	}
	JOINT LeftHip
	{
		OFFSET 0.052140 -0.069960 -0.075570 
		CHANNELS 3 Zrotation Xrotation Yrotation
		JOINT LeftKnee
		{
			OFFSET 0.000000 -0.402270 0.000000 
			CHANNELS 1 Zrotation
			JOINT LeftAnkle
			{
				OFFSET 0.000000 -0.404085 0.000000 
				CHANNELS 3 Zrotation Xrotation Yrotation
				End Site
				{
					OFFSET 0.204105 -0.089430 -0.008415 
				}
			}
		}
	}
}
MOTION
Frames: 34
Frame Time: 0.02
0.65641 0.09967 0.28211 29.79672 -38.93152 -4.2819 29.31204 2.86571 7.73658 3.58094 -2.2009 -2.11994 12.9297 1.10501 54.11522 92.26172 91.0077 2.4046 2.91906 24.64486 45.99526 -8.55686 68.10581 -75.16774 -7.5125 -1.44596 63.05334 -2.52728 -9.67054 -33.88465 -6.83256 -1.64215 -3.05256 65.20965 12.54424 4.4231 -29.09292 -8.65406 1.86797 3.22677
0.66078 0.1008 0.28754 29.92785 -39.1529 -4.26898 29.39126 2.83621 7.35473 3.92058 -2.48751 -2.11994 12.70545 1.09041 54.12561 92.38022 91.20137 2.74935 2.92857 28.18653 46.87859 -11.8819 66.62387 -72.48979 -8.22402 -2.05888 62.88762 -2.12962 -9.93448 -33.27588 -6.83223 -1.63857 -3.04965 65.00624 12.76822 3.93158 -28.26175 -8.74783 1.89138 3.24485
0.66513 0.10186 0.29259 30.04631 -39.35349 -4.23976 29.48972 2.80889 6.92599 4.29736 -2.79209 -2.11994 12.43958 1.09715 54.13828 92.50222 91.34437 3.10545 2.93021 32.12531 47.89809 -15.70474 64.80309 -69.1036 -9.1173 -2.85344 62.70589 -1.72177 -10.07468 -32.67483 -6.83213 -1.6446 -3.0511 64.76505 12.9115 3.24204 -27.42481 -8.84643 1.94207 3.27744
0.66948 0.10296 0.29779 30.17907 -39.56715 -4.22344 29.57874 2.7883 6.49858 4.67347 -3.09812 -2.11994 12.19112 1.09653 54.14971 92.6165 91.50675 3.45304 2.93061 36.03606 48.79992 -19.35756 63.03268 -66.25923 -9.84758 -3.53785 62.53219 -1.321 -10.28796 -32.06558 -6.83308 -1.64552 -3.05037 64.5457 13.09723 2.66666 -26.58472 -8.94432 1.97713 3.30176
0.67387 0.10401 0.30312 30.27462 -39.76373 -4.1837 29.67218 2.73448 6.1566 4.97692 -3.36171 -2.11994 11.94534 1.08537 54.16144 92.76081 91.68558 3.81586 2.95201 39.32038 49.94314 -22.803 61.69434 -62.50287 -10.91175 -4.33833 62.35219 -0.90934 -10.43376 -31.47497 -6.82907 -1.64925 -3.05033 64.30149 13.26246 1.99777 -25.76378 -9.03573 2.02473 3.3326
0.67817 0.10516 0.30808 30.44526 -39.99289 -4.1893 29.76152 2.75123 5.62346 5.44454 -3.72047 -2.11994 11.68696 1.10243 54.17395 92.84033 91.81775 4.15071 2.92799 43.98524 50.60728 -26.76124 59.38124 -60.45172 -11.33253 -4.94149 62.18347 -0.51814 -10.6889 -30.8466 -6.83564 -1.64967 -3.05001 64.10364 13.44855 1.47405 -24.90386 -9.14211 2.05331 3.35366
0.68226 0.1066 0.31224 30.82437 -40.30131 -4.31957 29.821 2.95495 4.5959 6.32701 -4.31578 -2.11994 11.38602 1.18021 54.17956 92.75868 91.83271 4.38662 2.77494 52.50887 49.99494 -32.29732 54.42077 -63.5279 -9.84953 -4.93957 62.04003 -0.1862 -11.28067 -30.1272 -6.86916 -1.63694 -3.04716 64.02328 13.72622 1.39131 -23.9355 -9.2855 2.02018 3.34263
0.68625 0.10815 0.31604 31.27986 -40.64592 -4.4966 29.87777 3.23087 3.37475 7.37902 -5.01049 -2.11994 11.07743 1.28756 54.18717 92.6082 91.8024 4.59655 2.57736 62.37715 48.88215 -38.2544 48.50301 -68.29976 -7.72887 -4.73447 61.91032 0.12464 -11.98484 -29.36727 -6.91367 -1.6209 -3.04402 63.99492 14.02442 1.46191 -22.93006 -9.44421 1.96759 3.32163
0.69026 0.10968 0.31994 31.70201 -40.9848 -4.65551 29.94457 3.47868 2.22647 8.37308 -5.67374 -2.11994 10.78445 1.38954 54.19972 92.47629 91.79321 4.8311 2.4036 71.53965 47.94504 -43.86434 43.04314 -72.13512 -5.95279 -4.63409 61.78146 0.44538 -12.63496 -28.6161 -6.95461 -1.6075 -3.04148 63.95636 14.3038 1.46618 -21.94266 -9.59812 1.92559 3.30627
0.69438 0.11111 0.32407 32.1185 -41.27904 -4.8017 29.97537 3.70715 1.13554 9.28826 -6.27892 -2.11994 10.43892 1.45935 54.18873 92.39689 91.78015 5.01434 2.21433 81.13084 47.22676 -50.25174 37.45599 -76.64562 -3.94769 -4.49252 61.62337 0.76569 -13.2959 -27.90513 -6.98967 -1.58963 -3.03708 63.86024 14.62141 1.44874 -20.94647 -9.74367 1.87697 3.28666
0.69825 0.11275 0.32765 32.56433 -41.67345 -4.98437 30.0797 3.99248 -0.11419 10.4069 -7.02942 -2.11994 10.20139 1.60146 54.22589 92.19335 91.76482 5.29519 2.04706 90.12448 45.9376 -54.98503 31.93484 -80.16233 -2.27089 -4.38015 61.52801 1.0811 -13.9594 -27.10173 -7.03943 -1.58018 -3.03646 63.89621 14.86413 1.51649 -19.96424 -9.90945 1.83737 3.27341
0.70147 0.11496 0.32987 33.07963 -42.34966 -5.26768 30.39238 4.42145 -1.80461 12.04943 -8.14758 -2.11994 10.26573 1.94612 54.40614 91.65115 91.75531 5.87489 1.94981 97.29445 43.14566 -56.18459 26.62698 -80.52089 -1.61086 -4.45026 61.61612 1.39368 -14.62952 -26.04453 -7.12843 -1.59478 -3.04623 64.28993 14.90546 1.77335 -18.99274 -10.13381 1.82553 3.2796
0.70445 0.11736 0.33154 33.62091 -43.12259 -5.58389 30.77811 4.90397 -3.63743 13.88872 -9.40956 -2.11994 10.43886 2.35899 54.63238 90.98967 91.74427 6.54788 1.87656 103.78339 39.80482 -55.52061 21.45756 -79.82572 -1.30987 -4.54743 61.76416 1.70087 -15.29341 -24.89741 -7.23157 -1.618 -3.05984 64.8137 14.8692 2.11272 -18.04352 -10.37677 1.82359 3.29252
0.70754 0.11966 0.33341 34.14521 -43.84255 -5.87791 31.12731 5.35968 -5.37392 15.63705 -10.6125 -2.11994 10.56132 2.73581 54.83104 90.38997 91.73464 7.16491 1.79342 110.48305 36.74677 -54.92304 16.36061 -79.61403 -0.87484 -4.59541 61.87621 2.00699 -15.94362 -23.79679 -7.32741 -1.63716 -3.0717 65.27471 14.86197 2.42162 -17.10833 -10.60694 1.81832 3.30269
0.71063 0.12205 0.33551 34.69249 -44.60313 -6.20482 31.49077 5.82999 -7.25576 17.40318 -11.79482 -2.11994 10.68889 3.14127 55.05953 89.75215 91.72399 7.8444 1.70447 117.65606 33.53101 -57.51046 10.66128 -79.4354 -0.29876 -4.78675 62.0267 2.32769 -16.66934 -22.67036 -7.42745 -1.65654 -3.08348 65.75393 14.88155 2.70827 -16.06985 -10.85592 1.80771 3.31138
0.71367 0.12428 0.33699 35.19899 -45.29996 -6.46954 31.84157 6.27962 -8.85974 19.17006 -13.04968 -2.11994 10.83149 3.495 55.23485 89.17098 91.71116 8.40867 1.63385 123.65241 30.51936 -53.17287 6.25848 -78.92344 -0.10493 -4.69536 62.1099 2.61647 -17.23241 -21.57762 -7.5218 -1.67792 -3.09649 66.22419 14.8268 3.05616 -15.25229 -11.06996 1.81049 3.3247
0.71663 0.12604 0.33692 35.56987 -45.81125 -6.56211 32.14259 6.67616 -9.71693 20.94714 -14.49668 -2.11994 10.99049 3.75817 55.26766 88.73511 91.73268 8.69988 1.60829 126.65576 28.21424 -28.80602 5.43934 -77.67363 -0.92556 -3.75868 62.00372 2.82316 -17.36782 -20.5932 -7.59816 -1.69949 -3.11051 66.64886 14.58422 3.57617 -15.03971 -11.18274 1.85082 3.35064
0.71954 0.12764 0.33624 35.90153 -46.25243 -6.58942 32.42784 7.04653 -10.27939 22.70685 -16.00567 -2.11994 11.16004 3.95498 55.24178 88.36779 91.74551 8.86128 1.60015 128.47508 26.1358 2.21952 5.91859 -76.12962 -2.11292 -2.5483 61.82573 2.99717 -17.33522 -19.64702 -7.66802 -1.72345 -3.12593 67.05799 14.26983 4.15018 -15.04882 -11.25973 1.90377 3.38076
0.72247 0.12931 0.33584 36.26168 -46.71594 -6.64124 32.71828 7.41718 -10.93811 24.43672 -17.46871 -2.11994 11.32452 4.13542 55.23343 87.99642 91.73549 9.03527 1.58458 130.77067 23.94861 29.29724 5.78315 -74.76198 -3.10495 -1.50233 61.67313 3.18311 -17.36621 -18.68817 -7.73998 -1.74835 -3.14164 67.46648 13.98912 4.68312 -14.95635 -11.35313 1.94919 3.40809
0.72542 0.13103 0.33544 36.57774 -47.22218 -6.71551 33.01946 7.83851 -11.75639 26.33274 -19.014 -2.11994 11.49634 4.51025 55.2681 87.50822 91.83578 9.40053 1.56936 133.30357 21.76025 60.30612 5.75393 -73.18128 -4.23023 -0.28849 61.5527 3.38106 -17.45198 -17.70713 -7.81601 -1.76474 -3.15347 67.91099 13.70083 5.28759 -14.86812 -11.44639 2.00282 3.43955
0.72832 0.13259 0.3349 36.97598 -47.62266 -6.72767 33.29378 8.14771 -12.17624 27.87614 -20.39817 -2.11994 11.65099 4.46913 55.19507 87.27897 91.70772 9.34521 1.55523 135.07071 19.64275 84.71538 5.81261 -71.98456 -5.16032 0.64138 61.34805 3.54648 -17.38254 -16.78152 -7.88189 -1.79962 -3.17381 68.27641 13.41287 5.75633 -14.82347 -11.53142 2.04186 3.46315
0.73111 0.13372 0.33416 37.60988 -47.73763 -6.5789 33.49526 8.15011 -11.5171 28.44681 -21.3433 -2.11994 11.78244 3.24633 54.87098 87.76762 90.92157 8.07406 1.55759 135.00441 17.60708 88.98744 5.77669 -71.95295 -5.46206 0.71724 60.92295 3.6284 -16.93772 -16.00955 -7.91883 -1.88296 -3.21624 68.41483 13.13893 5.82294 -14.84448 -11.6004 2.04059 3.46541
0.73385 0.13469 0.3333 38.32738 -47.75 -6.37077 33.67022 8.0409 -10.47587 28.66257 -22.11906 -2.11994 11.89202 1.61571 54.43553 88.51112 89.91156 6.39899 1.55745 134.21316 15.64935 86.42978 5.78762 -72.31728 -5.55293 0.49878 60.41646 3.67898 -16.34131 -15.29103 -7.94482 -1.98556 -3.26749 68.4756 12.86911 5.75301 -14.90155 -11.66255 2.02366 3.45934
0.7366 0.13574 0.3325 39.00768 -47.81589 -6.19308 33.85881 7.98495 -9.64229 29.04228 -22.95836 -2.11994 11.99185 0.20423 54.02838 89.12614 89.02342 4.96587 1.54613 133.76282 13.69609 87.17837 5.78928 -72.48354 -5.73831 0.41678 59.95029 3.74514 -15.80501 -14.54146 -7.97915 -2.08012 -3.31524 68.5797 12.60058 5.75485 -14.94242 -11.7292 2.01175 3.45609
0.73941 0.13674 0.33167 39.68531 -47.85059 -5.9982 34.04084 7.91766 -8.65517 29.41131 -23.85837 -2.11994 12.16988 -1.35078 53.70851 89.79836 88.04964 3.2849 1.58561 133.2226 11.57895 87.31363 5.78512 -72.71402 -5.94213 0.33191 59.4669 3.80484 -15.29553 -13.82009 -8.00469 -2.17012 -3.36042 68.6504 12.31578 5.71889 -14.99069 -11.78907 2.00882 3.45696
0.74208 0.13782 0.33088 40.38629 -47.9264 -5.82623 34.22966 7.8475 -7.90067 29.71724 -24.58871 -2.11994 12.18641 -2.70466 53.1873 90.40931 87.20158 2.02204 1.52076 132.71271 9.82255 87.00769 5.78783 -72.91049 -6.05281 0.18083 59.00182 3.87055 -14.70189 -13.05424 -8.03897 -2.27622 -3.41363 68.77119 12.06726 5.72691 -15.02865 -11.86147 1.98367 3.44738
0.74445 0.13918 0.33026 41.15278 -48.14445 -5.72959 34.4501 7.79938 -7.88513 29.94546 -24.90876 -2.11994 11.70533 -3.38752 52.08569 90.80326 86.75112 2.04497 1.14861 132.47239 9.01098 87.19953 5.78694 -72.90402 -5.95398 -0.09317 58.60107 3.96437 -13.86534 -12.13589 -8.16444 -2.40269 -3.48098 69.05984 11.91441 5.90174 -15.0335 -11.97396 1.89787 3.40974
0.74669 0.14062 0.32969 41.93556 -48.40708 -5.65899 34.67699 7.75181 -8.1174 30.12023 -25.05966 -2.11994 11.07364 -3.85663 50.79589 91.12339 86.43504 2.49615 0.67532 132.29228 8.5646 87.14013 5.78683 -72.85336 -5.76744 -0.42265 58.22357 4.06479 -12.95839 -11.17464 -8.29002 -2.54707 -3.55675 69.39976 11.79896 6.12212 -15.02499 -12.0987 1.79089 3.36216
0.74896 0.142 0.32909 42.69759 -48.64725 -5.5782 34.89706 7.70244 -8.23609 30.31372 -25.27766 -2.11994 10.54747 -4.43349 49.6256 91.46783 86.06124 2.73198 0.26106 132.0848 7.97127 87.13336 5.7871 -72.83269 -5.62181 -0.72031 57.83914 4.15982 -12.11655 -10.24274 -8.36966 -2.69751 -3.63306 69.70928 11.66905 6.31468 -15.01853 -12.21555 1.69543 3.31986
0.75133 0.14348 0.32852 43.52089 -48.89305 -5.48772 35.13339 7.65589 -8.3468 30.52016 -25.53426 -2.11994 9.8616 -4.97935 48.30525 91.86147 85.66843 3.04547 -0.20904 131.85037 7.30103 87.15568 5.78687 -72.78444 -5.46496 -1.0564 57.43437 4.26374 -11.13219 -9.26791 -8.63065 -2.79372 -3.69304 70.04575 11.52849 6.53633 -15.02979 -12.34215 1.59091 3.2738
0.75347 0.14476 0.3279 44.21683 -49.1391 -5.42515 35.33677 7.60485 -8.53614 30.68927 -25.66846 -2.11994 9.4759 -5.53431 47.25753 92.13018 85.34636 3.29878 -0.58609 131.69712 6.87602 87.14183 5.78691 -72.77723 -5.31295 -1.32127 57.08118 4.35122 -10.42659 -8.37567 -8.52911 -3.00056 -3.78668 70.33967 11.41898 6.70528 -15.00131 -12.45118 1.50108 3.23365
0.75503 0.14547 0.32716 44.57828 -49.37527 -5.42697 35.4558 7.54371 -8.90022 30.78971 -25.54157 -2.11994 9.92813 -6.15716 46.97845 92.08455 85.22105 3.33212 -0.68847 131.74902 7.04397 87.14671 5.78691 -72.89972 -5.19969 -1.37967 56.84337 4.39086 -10.53936 -7.68714 -7.29483 -3.56357 -3.99064 70.50085 11.38597 6.76056 -14.85886 -12.51097 1.45149 3.2094
0.75635 0.14595 0.32637 44.8066 -49.61078 -5.45731 35.54007 7.4782 -9.3334 30.85229 -25.29181 -2.11994 10.6912 -6.79475 46.98446 91.91228 85.15815 3.28438 -0.69308 131.88521 7.4447 87.14703 5.78689 -73.06206 -5.09476 -1.3625 56.66133 4.41379 -10.93093 -7.08951 -5.71839 -4.22761 -4.22475 70.61857 11.38291 6.75558 -14.67823 -12.55223 1.41841 3.19193
0.75775 0.14652 0.3256 45.08164 -49.84664 -5.47921 35.63495 7.41361 -9.72498 30.91992 -25.07553 -2.11994 11.3325 -7.4317 46.88289 91.78819 85.04391 3.24022 -0.73692 131.98932 7.7351 87.14552 5.7869 -73.20051 -4.98423 -1.37578 56.46785 4.44544 -11.17391 -6.47277 -4.38745 -4.80825 -4.43197 70.75802 11.36615 6.74848 -14.51961 -12.60055 1.38166 3.17335
